<svg version="1.1" id="Layer_1" xmlns="http://www.w3.org/2000/svg" xmlns:xlink="http://www.w3.org/1999/xlink" x="0px" y="0px"
	 width="100%" viewBox="0 0 1277 1277" enable-background="new 0 0 1277 1277" xml:space="preserve">
<path fill="#FFFFFF" opacity="1.000000" stroke="none" 
	d="
M597.000000,1278.000000 
	C398.000000,1278.000000 199.500000,1278.000000 1.000000,1278.000000 
	C1.000000,852.333313 1.000000,426.666656 1.000000,1.000000 
	C426.666656,1.000000 852.333313,1.000000 1278.000000,1.000000 
	C1278.000000,426.666656 1278.000000,852.333313 1278.000000,1278.000000 
	C1051.166626,1278.000000 824.333313,1278.000000 597.000000,1278.000000 
M505.958191,565.454834 
	C505.932495,547.630554 505.906799,529.806274 506.068054,511.084961 
	C506.004974,507.731049 505.941895,504.377106 506.025635,500.093018 
	C506.015869,481.803925 506.039398,463.514679 505.977631,445.225769 
	C505.957031,439.125458 502.130371,435.107971 496.661438,435.161957 
	C491.547546,435.212433 488.019592,439.229584 488.001526,445.267731 
	C487.952301,461.727966 487.948273,478.188477 487.978577,494.648773 
	C488.016846,515.427307 488.106750,536.205688 487.982544,557.906738 
	C488.025208,580.541504 488.067383,603.176270 488.110718,625.811035 
	C488.123474,632.468384 488.019592,639.128723 488.190155,645.782104 
	C488.336945,651.506470 491.947784,655.260315 496.977814,655.333191 
	C502.294647,655.410278 506.023468,651.552917 506.105530,645.696777 
	C506.182495,640.205688 506.106598,634.712341 506.084015,629.220093 
	C505.997833,608.259399 505.906036,587.298706 505.958191,565.454834 
M593.952942,599.500000 
	C593.935120,514.860962 593.917908,430.221893 593.898010,345.582855 
	C593.897278,342.417542 594.079407,339.234131 593.806396,336.091278 
	C593.413330,331.566681 589.521362,328.168304 585.050110,328.070465 
	C580.660400,327.974426 576.734802,331.359772 576.112061,335.888123 
	C575.931763,337.199188 576.009888,338.549072 576.010071,339.881165 
	C576.028381,477.669220 576.049011,615.457275 576.088318,753.245300 
	C576.088806,755.064514 576.169128,756.912048 576.488464,758.696960 
	C577.239624,762.895630 580.372070,765.550049 584.083618,765.387268 
	C587.128601,765.253784 590.679260,763.300293 592.841553,761.039856 
	C594.306335,759.508484 594.058411,756.047668 594.058960,753.449707 
	C594.069702,702.466492 594.004395,651.483215 593.952942,599.500000 
M715.889038,383.645721 
	C709.621399,385.410034 708.158142,387.606598 708.154114,395.593536 
	C708.103638,495.539520 708.064148,595.485535 708.036926,695.431519 
	C708.036438,697.089539 707.949280,698.822754 708.377319,700.391296 
	C709.571350,704.767456 712.593384,707.075806 717.147827,707.100037 
	C721.495178,707.123169 724.496033,704.945679 725.691528,700.809692 
	C726.230286,698.945801 726.047852,696.848938 726.048767,694.857727 
	C726.074524,638.721924 726.097656,582.586060 726.087280,526.450256 
	C726.079224,482.640472 726.036499,438.830658 725.982483,395.020874 
	C725.972656,387.081451 723.867065,384.578186 715.889038,383.645721 
M551.179871,422.665436 
	C546.466125,425.101898 546.520508,429.487183 546.517395,433.903381 
	C546.479858,487.205627 546.396301,540.507874 546.383423,593.810120 
	C546.378052,615.796570 546.550476,637.783020 546.556213,659.769470 
	C546.557495,664.757507 547.989075,668.690247 553.185608,670.181152 
	C559.697571,672.049561 564.303772,667.630310 564.302551,659.491333 
	C564.291565,583.868652 564.261780,508.246002 564.218567,432.623352 
	C564.213806,424.222565 560.220886,420.949402 551.179871,422.665436 
M766.956421,635.496887 
	C766.983215,640.161438 766.758057,644.844788 767.102966,649.485657 
	C767.500000,654.829956 771.747498,658.237366 776.985840,657.945374 
	C781.832458,657.675110 784.832275,654.355225 785.067688,648.971008 
	C785.118591,647.806580 785.102600,646.638916 785.102905,645.472717 
	C785.119507,579.661987 785.134766,513.851257 785.147766,448.040497 
	C785.148071,446.707855 785.234253,445.362061 785.083496,444.044922 
	C784.562012,439.487885 782.026550,436.714569 777.438721,436.189423 
	C772.987061,435.679871 769.397705,437.338440 767.923523,441.705719 
	C767.098083,444.151215 767.023621,446.931732 767.021301,449.561646 
	C766.966675,511.207092 766.968262,572.852600 766.956421,635.496887 
M755.950989,595.500000 
	C755.951904,556.184631 755.955505,516.869324 755.945862,477.553986 
	C755.945374,475.725037 756.026611,473.862335 755.724304,472.073761 
	C754.953491,467.513336 751.005554,464.319061 746.572571,464.448883 
	C741.483582,464.597931 738.292175,467.638397 737.868469,472.856842 
	C737.666504,475.344086 737.531311,477.844238 737.526855,480.338867 
	C737.452209,521.986206 737.384766,563.633606 737.371216,605.281006 
	C737.369507,610.604309 737.468750,615.944702 737.898926,621.246521 
	C738.382629,627.207825 742.174500,630.315186 747.865479,629.930481 
	C752.990417,629.584045 755.927307,626.270630 755.975281,620.488831 
	C756.041687,612.493164 755.967529,604.496338 755.950989,595.500000 
M607.152588,622.377014 
	C610.414917,625.001648 613.995178,625.796692 617.821045,623.850159 
	C621.637573,621.908386 622.149902,618.387939 622.143799,614.500793 
	C622.072327,569.050171 622.076416,523.599487 622.035217,478.148834 
	C622.029053,471.336548 619.083862,468.011322 613.199951,467.954865 
	C607.518799,467.900360 604.164062,471.508331 604.158691,478.084229 
	C604.121643,523.368408 604.100830,568.652710 604.248962,613.936401 
	C604.257568,616.568481 605.784485,619.195496 607.152588,622.377014 
M679.769409,528.559265 
	C679.831055,554.540161 679.881531,580.521118 679.961975,606.501953 
	C679.983093,613.322693 682.947998,616.976990 688.481812,617.164917 
	C694.238770,617.360474 697.647400,613.649780 697.645874,606.658081 
	C697.637146,565.854248 697.567871,525.050354 697.459717,484.246674 
	C697.442200,477.637970 694.066284,473.962219 688.480225,474.028534 
	C683.015747,474.093414 679.971130,477.814636 679.934204,484.612610 
	C679.856262,498.935303 679.821228,513.258179 679.769409,528.559265 
M517.239502,525.500000 
	C517.254700,549.314270 517.266541,573.128479 517.291199,596.942749 
	C517.293274,598.939575 517.231750,600.953430 517.458313,602.929810 
	C518.184753,609.268982 521.404785,612.329468 527.006958,612.185364 
	C532.480164,612.044678 535.544128,608.656616 535.630981,602.132141 
	C535.697388,597.148010 535.220093,592.158630 535.208252,587.171082 
	C535.134521,556.042236 535.125488,524.913147 535.087952,493.784180 
	C535.085510,491.786346 535.159729,489.775208 534.963623,487.793457 
	C534.476562,482.869232 531.254333,480.002136 526.323242,479.931305 
	C520.671448,479.850098 517.216675,483.539581 517.183899,490.027771 
	C517.125732,501.518127 517.210693,513.009216 517.239502,525.500000 
M795.573242,586.061584 
	C795.701599,587.718811 795.856689,589.374390 795.953613,591.033447 
	C796.362000,598.020935 799.704651,601.252625 806.279724,600.992004 
	C812.244690,600.755615 814.780701,597.701294 814.781189,590.540283 
	C814.783203,563.254395 814.753174,535.968567 814.723694,508.682709 
	C814.722229,507.354645 814.746948,506.004120 814.528931,504.702698 
	C813.720459,499.875854 810.541443,497.066223 805.698975,496.765808 
	C801.293762,496.492523 797.184753,499.402954 796.124878,503.876892 
	C795.633789,505.950043 795.575256,508.160553 795.572327,510.309143 
	C795.538452,535.252563 795.552734,560.195984 795.573242,586.061584 
M878.152161,913.647522 
	C892.510193,893.219788 882.894897,866.672852 859.368286,863.433044 
	C849.283203,862.044250 838.847656,863.200684 828.697998,863.200684 
	C828.697998,883.665894 828.697998,904.067505 828.697998,924.913086 
	C837.290894,924.913086 845.577881,925.040710 853.859192,924.879395 
	C863.266968,924.696289 871.363098,921.341858 878.152161,913.647522 
M400.299408,921.100525 
	C395.751465,914.987244 391.203552,908.874023 386.567688,902.642578 
	C387.485260,902.185852 387.906525,901.950317 388.347473,901.760559 
	C398.354004,897.453552 402.726837,889.684326 401.109650,879.075562 
	C399.740021,870.090881 392.957581,863.753235 382.640350,863.222961 
	C371.868927,862.669495 361.046967,863.099426 350.418274,863.099426 
	C350.418274,883.713318 350.418274,904.263367 350.418274,924.672180 
	C353.969604,924.672180 357.037354,924.672180 360.465942,924.672180 
	C360.465942,917.592407 360.465942,910.852173 360.465942,903.683899 
	C364.483093,903.683899 368.134888,903.854492 371.762665,903.632568 
	C374.937958,903.438293 376.842163,904.525574 378.553986,907.335266 
	C381.838074,912.725830 385.602661,917.832092 389.335815,922.933533 
	C390.091278,923.965881 391.542053,924.980164 392.755951,925.091675 
	C396.003387,925.389832 399.296265,925.193237 403.034119,925.193237 
	C402.001495,923.601257 401.370178,922.627991 400.299408,921.100525 
M984.695007,861.908386 
	C983.369690,861.779602 982.047058,861.589966 980.718628,861.531311 
	C966.482300,860.902710 953.382935,869.639954 948.954163,882.695679 
	C944.073547,897.083435 948.348755,912.375977 959.961060,920.117249 
	C971.847412,928.041199 984.328552,928.400696 996.662415,921.106018 
	C1007.932556,914.440369 1013.936523,900.997925 1011.625549,888.168152 
	C1008.980591,873.484314 999.593384,865.383850 984.695007,861.908386 
M477.196564,577.451843 
	C477.209747,553.670593 477.361420,529.887573 477.065765,506.110138 
	C477.027588,503.039062 475.416107,499.121399 473.163574,497.211792 
	C471.284790,495.619080 467.146393,495.540649 464.459290,496.328369 
	C460.641113,497.447693 459.210663,501.117279 459.217041,505.109955 
	C459.236694,517.416321 459.285858,529.722656 459.275116,542.028992 
	C459.262207,556.829346 459.156952,571.629761 459.179382,586.429993 
	C459.188293,592.320740 462.909210,596.205750 468.224365,596.176270 
	C473.473633,596.147156 476.901398,592.651184 477.155396,586.911072 
	C477.280273,584.089294 477.190308,581.257874 477.196564,577.451843 
M1072.439087,905.939636 
	C1073.055054,912.449768 1069.664673,916.118652 1062.022339,916.919373 
	C1052.950684,917.869873 1045.424805,914.649231 1039.288818,907.647217 
	C1036.925537,910.423767 1034.794189,912.927795 1032.667725,915.426086 
	C1042.327759,926.047119 1062.540039,929.490906 1074.594238,922.612732 
	C1080.431396,919.282043 1083.531372,914.327942 1083.544312,907.532776 
	C1083.557007,900.869568 1080.582275,895.930542 1074.593994,893.161438 
	C1070.853027,891.431641 1066.836304,890.266479 1062.886963,889.027283 
	C1058.454956,887.636719 1053.758301,886.906799 1049.541626,885.057739 
	C1044.087524,882.666016 1043.780029,876.348694 1048.883545,873.233643 
	C1051.179932,871.831909 1054.137451,871.125671 1056.863159,870.888733 
	C1064.568237,870.218994 1070.999146,873.328125 1076.254639,879.071289 
	C1078.460693,875.804871 1080.280273,873.110474 1082.218506,870.240540 
	C1071.511963,862.055481 1060.148315,858.747864 1047.325317,862.890991 
	C1039.558716,865.400391 1035.121338,871.514954 1034.934448,879.229004 
	C1034.744629,887.066467 1038.320557,892.215454 1046.720581,895.119019 
	C1052.359253,897.068054 1058.336670,898.046204 1063.953735,900.045410 
	C1066.904175,901.095581 1069.405518,903.406982 1072.439087,905.939636 
M647.490295,877.662354 
	C649.124756,875.223938 650.759216,872.785522 652.545166,870.121033 
	C641.519165,861.644531 629.870239,858.908142 617.036682,863.313965 
	C609.831665,865.787537 605.848938,872.196167 605.853821,879.965149 
	C605.858398,887.271484 609.255066,892.101807 616.687195,895.030701 
	C619.150024,896.001160 621.758667,896.607849 624.311951,897.341553 
	C628.939270,898.671326 633.790344,899.502014 638.115356,901.484741 
	C640.235291,902.456543 642.662964,905.559937 642.637817,907.671143 
	C642.608887,910.098877 640.478699,913.980408 638.451904,914.605103 
	C633.880737,916.014099 628.567810,916.935059 624.008972,915.953674 
	C618.923401,914.858887 614.338745,911.437500 609.173035,908.846680 
	C607.575012,910.827698 605.540100,913.350281 603.314697,916.109009 
	C614.867493,925.436462 627.252747,928.330078 641.045654,924.094421 
	C643.514771,923.336182 645.945984,921.899963 647.935608,920.229858 
	C657.163879,912.484192 655.522827,897.860291 644.479065,892.992188 
	C637.699463,890.003662 630.219055,888.629578 623.109436,886.355164 
	C619.359497,885.155518 615.626770,883.443909 616.153320,878.564087 
	C616.660706,873.861877 620.267822,871.834412 624.402283,871.105103 
	C631.446716,869.862488 637.945496,871.312439 643.583069,875.977661 
	C644.619751,876.835693 645.878784,877.425110 647.490295,877.662354 
M233.607254,890.721497 
	C229.919052,882.353027 226.047928,874.058228 222.635941,865.578613 
	C221.335861,862.347473 219.321594,861.962158 216.459076,862.197571 
	C213.610519,862.431702 210.995468,861.700928 209.323029,865.667908 
	C201.511597,884.196472 193.216095,902.520996 185.112381,920.926636 
	C184.554810,922.193176 184.150452,923.527100 183.626968,924.960876 
	C194.047562,925.407532 194.048187,925.407776 197.655930,916.533020 
	C197.843674,916.071228 198.074051,915.612366 198.168518,915.129456 
	C198.807220,911.863892 200.893860,911.168274 203.979263,911.249451 
	C211.466507,911.446411 218.978348,911.612061 226.448257,911.204224 
	C230.499207,910.982971 232.322021,912.354187 233.722977,916.024536 
	C237.351288,925.530090 237.517624,925.470215 247.753159,925.084167 
	C248.036301,925.073547 248.309189,924.789978 248.610062,924.620667 
	C243.708679,913.544678 238.811966,902.479248 233.607254,890.721497 
M428.927155,905.234558 
	C426.012604,911.679565 423.098022,918.124573 420.134003,924.678955 
	C430.524475,925.943115 430.526550,925.943970 434.010773,917.343811 
	C434.447754,916.265198 434.576630,914.897461 435.330261,914.148804 
	C436.558624,912.928223 438.160339,911.296265 439.646332,911.252319 
	C448.131104,911.001404 456.633362,911.024841 465.116425,911.327209 
	C466.633514,911.381226 468.696442,912.846191 469.452423,914.234253 
	C471.338013,917.696228 472.616425,921.488953 474.035797,924.901917 
	C477.902924,924.901917 481.344360,924.901917 485.058289,924.901917 
	C484.752777,923.974121 484.601959,923.357422 484.353058,922.783325 
	C476.020691,903.562317 467.568085,884.391968 459.443909,865.083496 
	C458.035675,861.736633 455.819092,862.230713 453.449585,862.355835 
	C450.858948,862.492554 448.139465,861.412903 446.517090,865.303711 
	C441.017609,878.492859 435.007233,891.468994 428.927155,905.234558 
M304.166779,924.744263 
	C315.888794,920.951660 321.767426,912.678833 322.227814,900.580566 
	C322.537720,892.436768 322.388214,884.275085 322.426392,876.121338 
	C322.446991,871.717285 322.430054,867.313110 322.430054,863.002930 
	C318.500519,863.002930 315.235382,863.002930 311.809753,863.002930 
	C311.809753,871.563354 311.902985,879.859741 311.775482,888.152771 
	C311.696442,893.293701 311.776855,898.515198 310.904785,903.547852 
	C309.538513,911.431885 303.768219,915.884277 295.799072,916.143311 
	C287.907135,916.399841 281.855042,912.215454 279.842926,904.574280 
	C279.010132,901.411499 278.865967,898.006226 278.828369,894.706543 
	C278.707886,884.130310 278.783569,873.551819 278.783569,863.019897 
	C274.844543,863.019897 271.604767,863.019897 268.447845,863.019897 
	C268.447845,874.684204 268.186066,885.999146 268.504364,897.297729 
	C269.099976,918.440125 282.634094,929.040039 304.166779,924.744263 
M757.438538,873.538940 
	C757.438538,870.095032 757.438538,866.651062 757.438538,863.093262 
	C753.781738,863.093262 750.528137,863.093262 747.660767,863.093262 
	C747.660767,876.318054 746.940979,889.329407 747.851257,902.225769 
	C748.883362,916.848938 759.280273,925.590027 773.851624,925.810913 
	C788.276794,926.029663 799.305054,917.338928 800.474365,902.890686 
	C801.541199,889.709106 800.700623,876.373047 800.700623,863.038086 
	C797.297119,863.038086 794.027832,863.038086 790.440369,863.038086 
	C790.440369,864.716858 790.449707,866.171509 790.438904,867.625977 
	C790.358337,878.446228 790.439209,889.271118 790.130249,900.084961 
	C789.935669,906.892517 787.072693,912.353577 780.296875,914.913269 
	C769.073792,919.153015 758.655334,912.563232 757.936951,900.485718 
	C757.423462,891.853149 757.579773,883.180847 757.438538,873.538940 
M693.167847,904.499878 
	C693.167847,911.260132 693.167847,918.020386 693.167847,924.771362 
	C696.914124,924.771362 700.168579,924.771362 703.664307,924.771362 
	C703.664307,907.399780 703.664307,890.322815 703.664307,872.814453 
	C710.490479,872.814453 717.082642,872.814453 723.891724,872.814453 
	C723.891724,869.302185 723.891724,866.226501 723.891724,863.251282 
	C706.750732,863.251282 689.880005,863.251282 673.161865,863.251282 
	C673.161865,866.596924 673.161865,869.537842 673.161865,872.811523 
	C679.894043,872.811523 686.328247,872.811523 693.164429,872.811523 
	C693.164429,883.263733 693.164429,893.381836 693.167847,904.499878 
M507.678802,923.921021 
	C509.156952,924.293457 510.629761,924.961182 512.114197,924.988220 
	C519.262390,925.118286 526.413635,925.081177 533.563843,925.092224 
	C539.320496,925.101135 545.077148,925.094116 550.834595,925.094116 
	C550.834595,921.596313 550.834595,918.815552 550.834595,915.462341 
	C539.782715,915.462341 528.923340,915.462341 517.806641,915.462341 
	C517.806641,897.668701 517.806641,880.446777 517.806641,863.052795 
	C514.410461,863.052795 511.295258,863.052795 507.653015,863.052795 
	C507.653015,883.169739 507.653015,903.086426 507.678802,923.921021 
M833.681519,520.171265 
	C829.202515,520.840210 825.309814,522.675964 825.175049,527.705933 
	C824.836975,540.322876 824.634827,552.960571 824.998230,565.572083 
	C825.186218,572.095276 829.330811,575.189148 835.448303,574.848328 
	C840.602112,574.561218 843.930725,570.661438 843.964478,564.566956 
	C844.027039,553.255310 844.023438,541.942749 843.947510,530.631226 
	C843.903015,524.017212 841.247559,521.181641 833.681519,520.171265 
M430.934692,529.769958 
	C430.822601,540.893311 430.619995,552.016785 430.633270,563.139954 
	C430.640900,569.537354 434.158142,573.277954 439.732147,573.309204 
	C445.268158,573.340210 448.538177,569.654907 448.566956,563.013062 
	C448.610840,552.880859 448.564209,542.747131 448.432556,532.615601 
	C448.361237,527.125000 445.719421,523.674194 441.058929,522.822327 
	C435.956635,521.889832 432.835938,524.368225 430.934692,529.769958 
M649.789917,554.375122 
	C649.809082,546.887451 649.999451,539.395020 649.789124,531.913818 
	C649.641113,526.648193 645.466797,523.082275 640.188049,523.133179 
	C635.068176,523.182617 631.975403,526.509033 631.935852,532.199768 
	C631.868774,541.850403 631.845642,551.501770 631.883667,561.152527 
	C631.903320,566.136475 634.349487,568.917786 639.113953,569.662292 
	C643.307922,570.317627 647.711487,567.859985 648.851990,563.697205 
	C649.584473,561.023743 649.501892,558.126892 649.789917,554.375122 
M669.912964,563.206238 
	C670.108948,552.021667 670.893677,540.802063 670.232849,529.668396 
	C669.937561,524.692505 663.063721,522.402832 659.265747,525.677002 
	C656.778564,527.821045 654.534363,531.581299 654.318542,534.762756 
	C653.781372,542.682434 654.440674,550.685791 654.672241,558.654053 
	C654.781128,562.400024 656.082703,565.532837 659.843140,566.986633 
	C663.859802,568.539490 666.941345,566.959351 669.912964,563.206238 
M919.125549,862.823242 
	C916.358093,862.823242 913.590637,862.823242 910.957275,862.823242 
	C910.957275,883.883972 910.957275,904.301270 910.957275,924.633362 
	C914.456604,924.633362 917.675537,924.633362 921.015320,924.633362 
	C921.015320,904.613037 921.027954,884.994690 920.971619,865.376587 
	C920.969238,864.549866 920.325928,863.724915 919.125549,862.823242 
M417.413116,558.805054 
	C418.037689,552.975342 419.057312,547.153320 419.170990,541.313660 
	C419.275604,535.938232 415.881378,532.927307 410.830200,532.752686 
	C405.671936,532.574341 401.933502,535.729797 401.509186,541.017517 
	C401.218079,544.645386 401.436554,548.312012 401.363525,551.960083 
	C401.280701,556.096252 402.533234,559.594543 406.471558,561.407776 
	C410.322937,563.181030 413.911072,562.407959 417.413116,558.805054 
M872.470520,548.434753 
	C872.471985,547.605408 872.484741,546.775818 872.473206,545.946655 
	C872.381165,539.325500 868.835815,535.167236 862.996643,534.825623 
	C857.417114,534.499084 853.088196,538.724304 852.718628,545.206848 
	C852.445618,549.996155 851.994141,555.030884 856.064636,558.688293 
	C859.136475,561.448486 862.854919,562.248047 866.699890,560.404785 
	C871.305786,558.196777 872.929993,554.260315 872.470520,548.434753 
z"/>
<path fill="#93B3AE" opacity="1.000000" stroke="none" 
	d="
M593.953796,600.000000 
	C594.004395,651.483215 594.069702,702.466492 594.058960,753.449707 
	C594.058411,756.047668 594.306335,759.508484 592.841553,761.039856 
	C590.679260,763.300293 587.128601,765.253784 584.083618,765.387268 
	C580.372070,765.550049 577.239624,762.895630 576.488464,758.696960 
	C576.169128,756.912048 576.088806,755.064514 576.088318,753.245300 
	C576.049011,615.457275 576.028381,477.669220 576.010071,339.881165 
	C576.009888,338.549072 575.931763,337.199188 576.112061,335.888123 
	C576.734802,331.359772 580.660400,327.974426 585.050110,328.070465 
	C589.521362,328.168304 593.413330,331.566681 593.806396,336.091278 
	C594.079407,339.234131 593.897278,342.417542 593.898010,345.582855 
	C593.917908,430.221893 593.935120,514.860962 593.953796,600.000000 
z"/>
<path fill="#B3323A" opacity="1.000000" stroke="none" 
	d="
M716.260742,383.606873 
	C723.867065,384.578186 725.972656,387.081451 725.982483,395.020874 
	C726.036499,438.830658 726.079224,482.640472 726.087280,526.450256 
	C726.097656,582.586060 726.074524,638.721924 726.048767,694.857727 
	C726.047852,696.848938 726.230286,698.945801 725.691528,700.809692 
	C724.496033,704.945679 721.495178,707.123169 717.147827,707.100037 
	C712.593384,707.075806 709.571350,704.767456 708.377319,700.391296 
	C707.949280,698.822754 708.036438,697.089539 708.036926,695.431519 
	C708.064148,595.485535 708.103638,495.539520 708.154114,395.593536 
	C708.158142,387.606598 709.621399,385.410034 716.260742,383.606873 
z"/>
<path fill="#234641" opacity="1.000000" stroke="none" 
	d="
M551.504028,422.491882 
	C560.220886,420.949402 564.213806,424.222565 564.218567,432.623352 
	C564.261780,508.246002 564.291565,583.868652 564.302551,659.491333 
	C564.303772,667.630310 559.697571,672.049561 553.185608,670.181152 
	C547.989075,668.690247 546.557495,664.757507 546.556213,659.769470 
	C546.550476,637.783020 546.378052,615.796570 546.383423,593.810120 
	C546.396301,540.507874 546.479858,487.205627 546.517395,433.903381 
	C546.520508,429.487183 546.466125,425.101898 551.504028,422.491882 
z"/>
<path fill="#E17753" opacity="1.000000" stroke="none" 
	d="
M766.957886,634.997437 
	C766.968262,572.852600 766.966675,511.207092 767.021301,449.561646 
	C767.023621,446.931732 767.098083,444.151215 767.923523,441.705719 
	C769.397705,437.338440 772.987061,435.679871 777.438721,436.189423 
	C782.026550,436.714569 784.562012,439.487885 785.083496,444.044922 
	C785.234253,445.362061 785.148071,446.707855 785.147766,448.040497 
	C785.134766,513.851257 785.119507,579.661987 785.102905,645.472717 
	C785.102600,646.638916 785.118591,647.806580 785.067688,648.971008 
	C784.832275,654.355225 781.832458,657.675110 776.985840,657.945374 
	C771.747498,658.237366 767.500000,654.829956 767.102966,649.485657 
	C766.758057,644.844788 766.983215,640.161438 766.957886,634.997437 
z"/>
<path fill="#DF7151" opacity="1.000000" stroke="none" 
	d="
M755.952271,596.000000 
	C755.967529,604.496338 756.041687,612.493164 755.975281,620.488831 
	C755.927307,626.270630 752.990417,629.584045 747.865479,629.930481 
	C742.174500,630.315186 738.382629,627.207825 737.898926,621.246521 
	C737.468750,615.944702 737.369507,610.604309 737.371216,605.281006 
	C737.384766,563.633606 737.452209,521.986206 737.526855,480.338867 
	C737.531311,477.844238 737.666504,475.344086 737.868469,472.856842 
	C738.292175,467.638397 741.483582,464.597931 746.572571,464.448883 
	C751.005554,464.319061 754.953491,467.513336 755.724304,472.073761 
	C756.026611,473.862335 755.945374,475.725037 755.945862,477.553986 
	C755.955505,516.869324 755.951904,556.184631 755.952271,596.000000 
z"/>
<path fill="#93B3AE" opacity="1.000000" stroke="none" 
	d="
M606.878723,622.100952 
	C605.784485,619.195496 604.257568,616.568481 604.248962,613.936401 
	C604.100830,568.652710 604.121643,523.368408 604.158691,478.084229 
	C604.164062,471.508331 607.518799,467.900360 613.199951,467.954865 
	C619.083862,468.011322 622.029053,471.336548 622.035217,478.148834 
	C622.076416,523.599487 622.072327,569.050171 622.143799,614.500793 
	C622.149902,618.387939 621.637573,621.908386 617.821045,623.850159 
	C613.995178,625.796692 610.414917,625.001648 606.878723,622.100952 
z"/>
<path fill="#B4343B" opacity="1.000000" stroke="none" 
	d="
M679.768982,528.070129 
	C679.821228,513.258179 679.856262,498.935303 679.934204,484.612610 
	C679.971130,477.814636 683.015747,474.093414 688.480225,474.028534 
	C694.066284,473.962219 697.442200,477.637970 697.459717,484.246674 
	C697.567871,525.050354 697.637146,565.854248 697.645874,606.658081 
	C697.647400,613.649780 694.238770,617.360474 688.481812,617.164917 
	C682.947998,616.976990 679.983093,613.322693 679.961975,606.501953 
	C679.881531,580.521118 679.831055,554.540161 679.768982,528.070129 
z"/>
<path fill="#83A79F" opacity="1.000000" stroke="none" 
	d="
M517.237671,525.000000 
	C517.210693,513.009216 517.125732,501.518127 517.183899,490.027771 
	C517.216675,483.539581 520.671448,479.850098 526.323242,479.931305 
	C531.254333,480.002136 534.476562,482.869232 534.963623,487.793457 
	C535.159729,489.775208 535.085510,491.786346 535.087952,493.784180 
	C535.125488,524.913147 535.134521,556.042236 535.208252,587.171082 
	C535.220093,592.158630 535.697388,597.148010 535.630981,602.132141 
	C535.544128,608.656616 532.480164,612.044678 527.006958,612.185364 
	C521.404785,612.329468 518.184753,609.268982 517.458313,602.929810 
	C517.231750,600.953430 517.293274,598.939575 517.291199,596.942749 
	C517.266541,573.128479 517.254700,549.314270 517.237671,525.000000 
z"/>
<path fill="#4B776B" opacity="1.000000" stroke="none" 
	d="
M505.881104,511.981964 
	C505.906799,529.806274 505.932495,547.630554 505.434845,565.764160 
	C504.270325,563.926392 503.545044,561.799866 503.011780,559.626221 
	C502.487488,557.489319 502.843414,554.793091 499.190918,555.425720 
	C495.538330,556.058350 491.848114,556.473572 488.174377,556.984192 
	C488.106750,536.205688 488.016846,515.427307 487.978577,494.648773 
	C487.948273,478.188477 487.952301,461.727966 488.001526,445.267731 
	C488.019592,439.229584 491.547546,435.212433 496.661438,435.161957 
	C502.130371,435.107971 505.957031,439.125458 505.977631,445.225769 
	C506.039398,463.514679 506.015869,481.803925 505.685608,500.857361 
	C505.524078,505.075134 505.702576,508.528534 505.881104,511.981964 
z"/>
<path fill="#E6895D" opacity="1.000000" stroke="none" 
	d="
M795.563721,585.600464 
	C795.552734,560.195984 795.538452,535.252563 795.572327,510.309143 
	C795.575256,508.160553 795.633789,505.950043 796.124878,503.876892 
	C797.184753,499.402954 801.293762,496.492523 805.698975,496.765808 
	C810.541443,497.066223 813.720459,499.875854 814.528931,504.702698 
	C814.746948,506.004120 814.722229,507.354645 814.723694,508.682709 
	C814.753174,535.968567 814.783203,563.254395 814.781189,590.540283 
	C814.780701,597.701294 812.244690,600.755615 806.279724,600.992004 
	C799.704651,601.252625 796.362000,598.020935 795.953613,591.033447 
	C795.856689,589.374390 795.701599,587.718811 795.563721,585.600464 
z"/>
<path fill="#1C1F25" opacity="1.000000" stroke="none" 
	d="
M877.935059,913.929932 
	C871.363098,921.341858 863.266968,924.696289 853.859192,924.879395 
	C845.577881,925.040710 837.290894,924.913086 828.697998,924.913086 
	C828.697998,904.067505 828.697998,883.665894 828.697998,863.200684 
	C838.847656,863.200684 849.283203,862.044250 859.368286,863.433044 
	C882.894897,866.672852 892.510193,893.219788 877.935059,913.929932 
M854.306396,872.407471 
	C849.235657,872.407471 844.164917,872.407471 839.039551,872.407471 
	C839.039551,887.059387 839.039551,900.986633 839.039551,915.358582 
	C843.879639,915.358582 848.505249,915.519165 853.116211,915.327271 
	C865.110718,914.828064 873.500854,906.472778 873.945984,894.775879 
	C874.411377,882.544128 867.386169,874.173645 854.306396,872.407471 
z"/>
<path fill="#181C21" opacity="1.000000" stroke="none" 
	d="
M400.519135,921.377625 
	C401.370178,922.627991 402.001495,923.601257 403.034119,925.193237 
	C399.296265,925.193237 396.003387,925.389832 392.755951,925.091675 
	C391.542053,924.980164 390.091278,923.965881 389.335815,922.933533 
	C385.602661,917.832092 381.838074,912.725830 378.553986,907.335266 
	C376.842163,904.525574 374.937958,903.438293 371.762665,903.632568 
	C368.134888,903.854492 364.483093,903.683899 360.465942,903.683899 
	C360.465942,910.852173 360.465942,917.592407 360.465942,924.672180 
	C357.037354,924.672180 353.969604,924.672180 350.418274,924.672180 
	C350.418274,904.263367 350.418274,883.713318 350.418274,863.099426 
	C361.046967,863.099426 371.868927,862.669495 382.640350,863.222961 
	C392.957581,863.753235 399.740021,870.090881 401.109650,879.075562 
	C402.726837,889.684326 398.354004,897.453552 388.347473,901.760559 
	C387.906525,901.950317 387.485260,902.185852 386.567688,902.642578 
	C391.203552,908.874023 395.751465,914.987244 400.519135,921.377625 
M360.445129,874.141357 
	C360.445129,880.722534 360.445129,887.303711 360.445129,893.999512 
	C367.686035,893.999512 374.327301,894.252747 380.939270,893.921570 
	C386.505493,893.642700 390.212036,889.708679 390.770630,884.405762 
	C391.283173,879.539490 388.567566,873.823242 384.173157,873.416260 
	C376.389862,872.695557 368.488495,873.249573 360.445129,874.141357 
z"/>
<path fill="#1A1D22" opacity="1.000000" stroke="none" 
	d="
M985.112854,861.964722 
	C999.593384,865.383850 1008.980591,873.484314 1011.625549,888.168152 
	C1013.936523,900.997925 1007.932556,914.440369 996.662415,921.106018 
	C984.328552,928.400696 971.847412,928.041199 959.961060,920.117249 
	C948.348755,912.375977 944.073547,897.083435 948.954163,882.695679 
	C953.382935,869.639954 966.482300,860.902710 980.718628,861.531311 
	C982.047058,861.589966 983.369690,861.779602 985.112854,861.964722 
M959.649902,903.530151 
	C964.973999,914.816650 976.787292,919.552917 987.875244,914.846313 
	C998.364502,910.393860 1003.799683,897.076294 999.717163,885.831299 
	C995.623047,874.554504 984.101685,868.707397 972.802979,872.172363 
	C960.895081,875.824219 955.181702,888.787109 959.649902,903.530151 
z"/>
<path fill="#4B7469" opacity="1.000000" stroke="none" 
	d="
M477.197083,577.941345 
	C477.190308,581.257874 477.280273,584.089294 477.155396,586.911072 
	C476.901398,592.651184 473.473633,596.147156 468.224365,596.176270 
	C462.909210,596.205750 459.188293,592.320740 459.179382,586.429993 
	C459.156952,571.629761 459.262207,556.829346 459.275116,542.028992 
	C459.285858,529.722656 459.236694,517.416321 459.217041,505.109955 
	C459.210663,501.117279 460.641113,497.447693 464.459290,496.328369 
	C467.146393,495.540649 471.284790,495.619080 473.163574,497.211792 
	C475.416107,499.121399 477.027588,503.039062 477.065765,506.110138 
	C477.361420,529.887573 477.209747,553.670593 477.197083,577.941345 
z"/>
<path fill="#588175" opacity="1.000000" stroke="none" 
	d="
M488.078461,557.445435 
	C491.848114,556.473572 495.538330,556.058350 499.190918,555.425720 
	C502.843414,554.793091 502.487488,557.489319 503.011780,559.626221 
	C503.545044,561.799866 504.270325,563.926392 505.363892,566.205811 
	C505.906036,587.298706 505.997833,608.259399 506.084015,629.220093 
	C506.106598,634.712341 506.182495,640.205688 506.105530,645.696777 
	C506.023468,651.552917 502.294647,655.410278 496.977814,655.333191 
	C491.947784,655.260315 488.336945,651.506470 488.190155,645.782104 
	C488.019592,639.128723 488.123474,632.468384 488.110718,625.811035 
	C488.067383,603.176270 488.025208,580.541504 488.078461,557.445435 
z"/>
<path fill="#1C1F25" opacity="1.000000" stroke="none" 
	d="
M1072.274414,905.544189 
	C1069.405518,903.406982 1066.904175,901.095581 1063.953735,900.045410 
	C1058.336670,898.046204 1052.359253,897.068054 1046.720581,895.119019 
	C1038.320557,892.215454 1034.744629,887.066467 1034.934448,879.229004 
	C1035.121338,871.514954 1039.558716,865.400391 1047.325317,862.890991 
	C1060.148315,858.747864 1071.511963,862.055481 1082.218506,870.240540 
	C1080.280273,873.110474 1078.460693,875.804871 1076.254639,879.071289 
	C1070.999146,873.328125 1064.568237,870.218994 1056.863159,870.888733 
	C1054.137451,871.125671 1051.179932,871.831909 1048.883545,873.233643 
	C1043.780029,876.348694 1044.087524,882.666016 1049.541626,885.057739 
	C1053.758301,886.906799 1058.454956,887.636719 1062.886963,889.027283 
	C1066.836304,890.266479 1070.853027,891.431641 1074.593994,893.161438 
	C1080.582275,895.930542 1083.557007,900.869568 1083.544312,907.532776 
	C1083.531372,914.327942 1080.431396,919.282043 1074.594238,922.612732 
	C1062.540039,929.490906 1042.327759,926.047119 1032.667725,915.426086 
	C1034.794189,912.927795 1036.925537,910.423767 1039.288818,907.647217 
	C1045.424805,914.649231 1052.950684,917.869873 1062.022339,916.919373 
	C1069.664673,916.118652 1073.055054,912.449768 1072.274414,905.544189 
z"/>
<path fill="#1C1F25" opacity="1.000000" stroke="none" 
	d="
M647.262756,877.900391 
	C645.878784,877.425110 644.619751,876.835693 643.583069,875.977661 
	C637.945496,871.312439 631.446716,869.862488 624.402283,871.105103 
	C620.267822,871.834412 616.660706,873.861877 616.153320,878.564087 
	C615.626770,883.443909 619.359497,885.155518 623.109436,886.355164 
	C630.219055,888.629578 637.699463,890.003662 644.479065,892.992188 
	C655.522827,897.860291 657.163879,912.484192 647.935608,920.229858 
	C645.945984,921.899963 643.514771,923.336182 641.045654,924.094421 
	C627.252747,928.330078 614.867493,925.436462 603.314697,916.109009 
	C605.540100,913.350281 607.575012,910.827698 609.173035,908.846680 
	C614.338745,911.437500 618.923401,914.858887 624.008972,915.953674 
	C628.567810,916.935059 633.880737,916.014099 638.451904,914.605103 
	C640.478699,913.980408 642.608887,910.098877 642.637817,907.671143 
	C642.662964,905.559937 640.235291,902.456543 638.115356,901.484741 
	C633.790344,899.502014 628.939270,898.671326 624.311951,897.341553 
	C621.758667,896.607849 619.150024,896.001160 616.687195,895.030701 
	C609.255066,892.101807 605.858398,887.271484 605.853821,879.965149 
	C605.848938,872.196167 609.831665,865.787537 617.036682,863.313965 
	C629.870239,858.908142 641.519165,861.644531 652.545166,870.121033 
	C650.759216,872.785522 649.124756,875.223938 647.262756,877.900391 
z"/>
<path fill="#181C21" opacity="1.000000" stroke="none" 
	d="
M233.761246,891.067627 
	C238.811966,902.479248 243.708679,913.544678 248.610062,924.620667 
	C248.309189,924.789978 248.036301,925.073547 247.753159,925.084167 
	C237.517624,925.470215 237.351288,925.530090 233.722977,916.024536 
	C232.322021,912.354187 230.499207,910.982971 226.448257,911.204224 
	C218.978348,911.612061 211.466507,911.446411 203.979263,911.249451 
	C200.893860,911.168274 198.807220,911.863892 198.168518,915.129456 
	C198.074051,915.612366 197.843674,916.071228 197.655930,916.533020 
	C194.048187,925.407776 194.047562,925.407532 183.626968,924.960876 
	C184.150452,923.527100 184.554810,922.193176 185.112381,920.926636 
	C193.216095,902.520996 201.511597,884.196472 209.323029,865.667908 
	C210.995468,861.700928 213.610519,862.431702 216.459076,862.197571 
	C219.321594,861.962158 221.335861,862.347473 222.635941,865.578613 
	C226.047928,874.058228 229.919052,882.353027 233.761246,891.067627 
M224.026932,901.861816 
	C225.625656,901.764343 227.806732,902.170593 226.600815,899.325378 
	C223.139587,891.159241 219.623703,883.016235 215.834641,874.176697 
	C211.836426,883.764648 208.180588,892.531555 204.287842,901.866516 
	C211.151733,901.866516 217.134003,901.866516 224.026932,901.861816 
z"/>
<path fill="#181C21" opacity="1.000000" stroke="none" 
	d="
M429.059631,904.880493 
	C435.007233,891.468994 441.017609,878.492859 446.517090,865.303711 
	C448.139465,861.412903 450.858948,862.492554 453.449585,862.355835 
	C455.819092,862.230713 458.035675,861.736633 459.443909,865.083496 
	C467.568085,884.391968 476.020691,903.562317 484.353058,922.783325 
	C484.601959,923.357422 484.752777,923.974121 485.058289,924.901917 
	C481.344360,924.901917 477.902924,924.901917 474.035797,924.901917 
	C472.616425,921.488953 471.338013,917.696228 469.452423,914.234253 
	C468.696442,912.846191 466.633514,911.381226 465.116425,911.327209 
	C456.633362,911.024841 448.131104,911.001404 439.646332,911.252319 
	C438.160339,911.296265 436.558624,912.928223 435.330261,914.148804 
	C434.576630,914.897461 434.447754,916.265198 434.010773,917.343811 
	C430.526550,925.943970 430.524475,925.943115 420.134003,924.678955 
	C423.098022,918.124573 426.012604,911.679565 429.059631,904.880493 
M445.091125,892.537781 
	C443.837646,895.454102 442.584198,898.370422 441.225555,901.531494 
	C449.259949,901.531494 456.480835,901.531494 464.490875,901.531494 
	C460.529144,892.339294 456.789581,883.662659 452.801056,874.408325 
	C450.137085,880.675964 447.763916,886.259399 445.091125,892.537781 
z"/>
<path fill="#1A1D22" opacity="1.000000" stroke="none" 
	d="
M303.766388,924.843689 
	C282.634094,929.040039 269.099976,918.440125 268.504364,897.297729 
	C268.186066,885.999146 268.447845,874.684204 268.447845,863.019897 
	C271.604767,863.019897 274.844543,863.019897 278.783569,863.019897 
	C278.783569,873.551819 278.707886,884.130310 278.828369,894.706543 
	C278.865967,898.006226 279.010132,901.411499 279.842926,904.574280 
	C281.855042,912.215454 287.907135,916.399841 295.799072,916.143311 
	C303.768219,915.884277 309.538513,911.431885 310.904785,903.547852 
	C311.776855,898.515198 311.696442,893.293701 311.775482,888.152771 
	C311.902985,879.859741 311.809753,871.563354 311.809753,863.002930 
	C315.235382,863.002930 318.500519,863.002930 322.430054,863.002930 
	C322.430054,867.313110 322.446991,871.717285 322.426392,876.121338 
	C322.388214,884.275085 322.537720,892.436768 322.227814,900.580566 
	C321.767426,912.678833 315.888794,920.951660 303.766388,924.843689 
z"/>
<path fill="#1C1F25" opacity="1.000000" stroke="none" 
	d="
M757.437866,874.032593 
	C757.579773,883.180847 757.423462,891.853149 757.936951,900.485718 
	C758.655334,912.563232 769.073792,919.153015 780.296875,914.913269 
	C787.072693,912.353577 789.935669,906.892517 790.130249,900.084961 
	C790.439209,889.271118 790.358337,878.446228 790.438904,867.625977 
	C790.449707,866.171509 790.440369,864.716858 790.440369,863.038086 
	C794.027832,863.038086 797.297119,863.038086 800.700623,863.038086 
	C800.700623,876.373047 801.541199,889.709106 800.474365,902.890686 
	C799.305054,917.338928 788.276794,926.029663 773.851624,925.810913 
	C759.280273,925.590027 748.883362,916.848938 747.851257,902.225769 
	C746.940979,889.329407 747.660767,876.318054 747.660767,863.093262 
	C750.528137,863.093262 753.781738,863.093262 757.438538,863.093262 
	C757.438538,866.651062 757.438538,870.095032 757.437866,874.032593 
z"/>
<path fill="#1C1F25" opacity="1.000000" stroke="none" 
	d="
M693.166138,903.999939 
	C693.164429,893.381836 693.164429,883.263733 693.164429,872.811523 
	C686.328247,872.811523 679.894043,872.811523 673.161865,872.811523 
	C673.161865,869.537842 673.161865,866.596924 673.161865,863.251282 
	C689.880005,863.251282 706.750732,863.251282 723.891724,863.251282 
	C723.891724,866.226501 723.891724,869.302185 723.891724,872.814453 
	C717.082642,872.814453 710.490479,872.814453 703.664307,872.814453 
	C703.664307,890.322815 703.664307,907.399780 703.664307,924.771362 
	C700.168579,924.771362 696.914124,924.771362 693.167847,924.771362 
	C693.167847,918.020386 693.167847,911.260132 693.166138,903.999939 
z"/>
<path fill="#181C21" opacity="1.000000" stroke="none" 
	d="
M507.665894,923.462097 
	C507.653015,903.086426 507.653015,883.169739 507.653015,863.052795 
	C511.295258,863.052795 514.410461,863.052795 517.806641,863.052795 
	C517.806641,880.446777 517.806641,897.668701 517.806641,915.462341 
	C528.923340,915.462341 539.782715,915.462341 550.834595,915.462341 
	C550.834595,918.815552 550.834595,921.596313 550.834595,925.094116 
	C545.077148,925.094116 539.320496,925.101135 533.563843,925.092224 
	C526.413635,925.081177 519.262390,925.118286 512.114197,924.988220 
	C510.629761,924.961182 509.156952,924.293457 507.665894,923.462097 
z"/>
<path fill="#E6895D" opacity="1.000000" stroke="none" 
	d="
M834.081421,520.164307 
	C841.247559,521.181641 843.903015,524.017212 843.947510,530.631226 
	C844.023438,541.942749 844.027039,553.255310 843.964478,564.566956 
	C843.930725,570.661438 840.602112,574.561218 835.448303,574.848328 
	C829.330811,575.189148 825.186218,572.095276 824.998230,565.572083 
	C824.634827,552.960571 824.836975,540.322876 825.175049,527.705933 
	C825.309814,522.675964 829.202515,520.840210 834.081421,520.164307 
z"/>
<path fill="#4B776B" opacity="1.000000" stroke="none" 
	d="
M431.016663,529.376099 
	C432.835938,524.368225 435.956635,521.889832 441.058929,522.822327 
	C445.719421,523.674194 448.361237,527.125000 448.432556,532.615601 
	C448.564209,542.747131 448.610840,552.880859 448.566956,563.013062 
	C448.538177,569.654907 445.268158,573.340210 439.732147,573.309204 
	C434.158142,573.277954 430.640900,569.537354 430.633270,563.139954 
	C430.619995,552.016785 430.822601,540.893311 431.016663,529.376099 
z"/>
<path fill="#93B3AE" opacity="1.000000" stroke="none" 
	d="
M649.787292,554.852661 
	C649.501892,558.126892 649.584473,561.023743 648.851990,563.697205 
	C647.711487,567.859985 643.307922,570.317627 639.113953,569.662292 
	C634.349487,568.917786 631.903320,566.136475 631.883667,561.152527 
	C631.845642,551.501770 631.868774,541.850403 631.935852,532.199768 
	C631.975403,526.509033 635.068176,523.182617 640.188049,523.133179 
	C645.466797,523.082275 649.641113,526.648193 649.789124,531.913818 
	C649.999451,539.395020 649.809082,546.887451 649.787292,554.852661 
z"/>
<path fill="#C1546D" opacity="1.000000" stroke="none" 
	d="
M669.680603,563.503052 
	C666.941345,566.959351 663.859802,568.539490 659.843140,566.986633 
	C656.082703,565.532837 654.781128,562.400024 654.672241,558.654053 
	C654.440674,550.685791 653.781372,542.682434 654.318542,534.762756 
	C654.534363,531.581299 656.778564,527.821045 659.265747,525.677002 
	C663.063721,522.402832 669.937561,524.692505 670.232849,529.668396 
	C670.893677,540.802063 670.108948,552.021667 669.680603,563.503052 
z"/>
<path fill="#181C21" opacity="1.000000" stroke="none" 
	d="
M919.553345,862.861206 
	C920.325928,863.724915 920.969238,864.549866 920.971619,865.376587 
	C921.027954,884.994690 921.015320,904.613037 921.015320,924.633362 
	C917.675537,924.633362 914.456604,924.633362 910.957275,924.633362 
	C910.957275,904.301270 910.957275,883.883972 910.957275,862.823242 
	C913.590637,862.823242 916.358093,862.823242 919.553345,862.861206 
z"/>
<path fill="#234641" opacity="1.000000" stroke="none" 
	d="
M417.185120,559.099731 
	C413.911072,562.407959 410.322937,563.181030 406.471558,561.407776 
	C402.533234,559.594543 401.280701,556.096252 401.363525,551.960083 
	C401.436554,548.312012 401.218079,544.645386 401.509186,541.017517 
	C401.933502,535.729797 405.671936,532.574341 410.830200,532.752686 
	C415.881378,532.927307 419.275604,535.938232 419.170990,541.313660 
	C419.057312,547.153320 418.037689,552.975342 417.185120,559.099731 
z"/>
<path fill="#E6895D" opacity="1.000000" stroke="none" 
	d="
M872.467041,548.879150 
	C872.929993,554.260315 871.305786,558.196777 866.699890,560.404785 
	C862.854919,562.248047 859.136475,561.448486 856.064636,558.688293 
	C851.994141,555.030884 852.445618,549.996155 852.718628,545.206848 
	C853.088196,538.724304 857.417114,534.499084 862.996643,534.825623 
	C868.835815,535.167236 872.381165,539.325500 872.473206,545.946655 
	C872.484741,546.775818 872.471985,547.605408 872.467041,548.879150 
z"/>
<path fill="#588175" opacity="1.000000" stroke="none" 
	d="
M505.974548,511.533447 
	C505.702576,508.528534 505.524078,505.075134 505.612183,501.322449 
	C505.941895,504.377106 506.004974,507.731049 505.974548,511.533447 
z"/>
<path fill="#FBFBFB" opacity="1.000000" stroke="none" 
	d="
M854.773438,872.447998 
	C867.386169,874.173645 874.411377,882.544128 873.945984,894.775879 
	C873.500854,906.472778 865.110718,914.828064 853.116211,915.327271 
	C848.505249,915.519165 843.879639,915.358582 839.039551,915.358582 
	C839.039551,900.986633 839.039551,887.059387 839.039551,872.407471 
	C844.164917,872.407471 849.235657,872.407471 854.773438,872.447998 
z"/>
<path fill="#F4F4F5" opacity="1.000000" stroke="none" 
	d="
M360.540833,873.705750 
	C368.488495,873.249573 376.389862,872.695557 384.173157,873.416260 
	C388.567566,873.823242 391.283173,879.539490 390.770630,884.405762 
	C390.212036,889.708679 386.505493,893.642700 380.939270,893.921570 
	C374.327301,894.252747 367.686035,893.999512 360.445129,893.999512 
	C360.445129,887.303711 360.445129,880.722534 360.540833,873.705750 
z"/>
<path fill="#FBFBFB" opacity="1.000000" stroke="none" 
	d="
M959.472473,903.175110 
	C955.181702,888.787109 960.895081,875.824219 972.802979,872.172363 
	C984.101685,868.707397 995.623047,874.554504 999.717163,885.831299 
	C1003.799683,897.076294 998.364502,910.393860 987.875244,914.846313 
	C976.787292,919.552917 964.973999,914.816650 959.472473,903.175110 
z"/>
<path fill="#F4F4F5" opacity="1.000000" stroke="none" 
	d="
M223.571594,901.864136 
	C217.134003,901.866516 211.151733,901.866516 204.287842,901.866516 
	C208.180588,892.531555 211.836426,883.764648 215.834641,874.176697 
	C219.623703,883.016235 223.139587,891.159241 226.600815,899.325378 
	C227.806732,902.170593 225.625656,901.764343 223.571594,901.864136 
z"/>
<path fill="#F4F4F5" opacity="1.000000" stroke="none" 
	d="
M445.240906,892.190308 
	C447.763916,886.259399 450.137085,880.675964 452.801056,874.408325 
	C456.789581,883.662659 460.529144,892.339294 464.490875,901.531494 
	C456.480835,901.531494 449.259949,901.531494 441.225555,901.531494 
	C442.584198,898.370422 443.837646,895.454102 445.240906,892.190308 
z"/>
</svg>